<?xml version="1.0" encoding="UTF-8"?>
<!DOCTYPE svg PUBLIC "-//W3C//DTD SVG 1.1//EN" "http://www.w3.org/Graphics/SVG/1.1/DTD/svg11.dtd">
<svg xmlns="http://www.w3.org/2000/svg" version="1.1" width="500px" height="500px" style="shape-rendering:geometricPrecision; text-rendering:geometricPrecision; image-rendering:optimizeQuality; fill-rule:evenodd; clip-rule:evenodd" xmlns:xlink="http://www.w3.org/1999/xlink">
<g><path style="opacity:0.997" fill="#002046" d="M 191.5,8.5 C 231.835,8.33334 272.168,8.50001 312.5,9C 313.022,9.5613 313.355,10.228 313.5,11C 311.213,27.1297 309.213,43.2963 307.5,59.5C 271.457,59.1733 235.457,59.5066 199.5,60.5C 198.914,60.2907 198.414,59.9574 198,59.5C 195.608,43.4804 193.108,27.4804 190.5,11.5C 190.685,10.4163 191.018,9.41635 191.5,8.5 Z"/></g>
<g><path style="opacity:0.988" fill="#002046" d="M 194.5,67.5 C 233.168,67.3333 271.835,67.5 310.5,68C 315.665,71.7207 316.832,76.5541 314,82.5C 312.59,83.7875 311.09,84.9542 309.5,86C 271.5,86.6667 233.5,86.6667 195.5,86C 189.975,83.0812 188.142,78.5812 190,72.5C 191.059,70.3408 192.559,68.6741 194.5,67.5 Z"/></g>
<g><path style="opacity:0.996" fill="#002046" d="M 249.5,94.5 C 257.88,93.5807 260.88,97.2473 258.5,105.5C 272.171,105.667 285.837,105.5 299.5,105C 302.465,102.911 305.299,103.078 308,105.5C 311.051,118.323 314.718,130.989 319,143.5C 321.069,144.264 323.236,144.764 325.5,145C 326.332,156.217 321.332,163.884 310.5,168C 295.507,171.753 285.007,166.586 279,152.5C 278.503,149.854 278.336,147.187 278.5,144.5C 281.365,144.945 283.865,144.278 286,142.5C 289.942,132.17 293.775,121.836 297.5,111.5C 284.833,111.5 272.167,111.5 259.5,111.5C 260.122,141.851 261.289,172.185 263,202.5C 264.734,203.249 266.567,203.749 268.5,204C 269.167,205.667 269.833,207.333 270.5,209C 274.5,209.333 278.5,209.667 282.5,210C 284.099,211.066 285.099,212.566 285.5,214.5C 287.766,215.314 290.1,215.814 292.5,216C 293.097,217.889 293.431,219.722 293.5,221.5C 294.086,221.291 294.586,220.957 295,220.5C 295.333,218.167 295.667,215.833 296,213.5C 301.785,212.047 306.119,208.714 309,203.5C 321.505,239.683 334.005,275.85 346.5,312C 325.599,329.227 308.766,349.727 296,373.5C 288.177,388.812 281.177,404.479 275,420.5C 269,427.833 263,435.167 257,442.5C 255.989,443.337 254.822,443.67 253.5,443.5C 254.904,405.473 254.571,367.473 252.5,329.5C 253.296,316.859 253.796,304.193 254,291.5C 266.82,285.374 269.82,276.04 263,263.5C 254.04,255.507 245.04,255.507 236,263.5C 229.424,277.109 233.09,286.775 247,292.5C 247.833,342.837 247.667,393.17 246.5,443.5C 239.343,435.207 232.177,426.874 225,418.5C 215.968,388.765 201.968,361.765 183,337.5C 175.091,327.747 165.591,320.08 154.5,314.5C 154.167,313.833 153.833,313.167 153.5,312.5C 166.244,275.6 179.577,238.933 193.5,202.5C 196.954,208.067 201.954,211.4 208.5,212.5C 208.543,215.118 208.877,217.785 209.5,220.5C 211.074,221.631 212.741,221.798 214.5,221C 211.085,219.857 210.751,218.19 213.5,216C 215.81,215.503 218.143,215.337 220.5,215.5C 220.178,213.278 220.845,211.444 222.5,210C 226.833,209.667 231.167,209.333 235.5,209C 236.227,207.601 236.727,206.101 237,204.5C 238.333,203.833 239.667,203.167 241,202.5C 243.374,173.519 245.541,144.519 247.5,115.5C 247.43,114.228 247.097,113.062 246.5,112C 234.171,111.5 221.838,111.333 209.5,111.5C 212.265,122.961 215.931,134.128 220.5,145C 222.473,145.495 224.473,145.662 226.5,145.5C 224.261,164.552 213.594,172.385 194.5,169C 183.77,164.78 178.436,156.947 178.5,145.5C 180.792,145.756 182.959,145.423 185,144.5C 190.618,131.11 195.785,117.61 200.5,104C 215.985,105.38 231.652,105.88 247.5,105.5C 247.111,101.586 247.778,97.9196 249.5,94.5 Z M 302.5,116.5 C 303.117,116.611 303.617,116.944 304,117.5C 307.149,126.444 309.982,135.444 312.5,144.5C 305.833,144.5 299.167,144.5 292.5,144.5C 295.627,135.12 298.961,125.786 302.5,116.5 Z M 202.5,116.5 C 203.497,116.47 204.164,116.97 204.5,118C 207.308,126.758 210.308,135.425 213.5,144C 206.677,145.46 199.677,145.96 192.5,145.5C 195.429,135.713 198.763,126.046 202.5,116.5 Z"/></g>
<g><path style="opacity:0.663" fill="#0f324a" d="M 289.5,218.5 C 291.465,218.948 291.798,219.948 290.5,221.5C 282.923,221.515 275.256,221.348 267.5,221C 274.981,220.142 282.314,219.308 289.5,218.5 Z"/></g>
<g><path style="opacity:0.999" fill="#c78f22" d="M 340.5,356.5 C 343.987,357.824 346.321,360.324 347.5,364C 310.551,399.013 285.051,441.18 271,490.5C 262.8,501.101 254.467,501.101 246,490.5C 236.429,470.342 225.095,451.342 212,433.5C 211.219,432.056 211.386,430.723 212.5,429.5C 216.55,426.276 220.55,426.109 224.5,429C 235.769,439.098 245.769,450.265 254.5,462.5C 271.202,427.952 293.535,397.452 321.5,371C 327.734,365.92 334.067,361.086 340.5,356.5 Z"/></g>
</svg>
