<svg xmlns="http://www.w3.org/2000/svg" width="500" height="500" style="shape-rendering:geometricPrecision;text-rendering:geometricPrecision;image-rendering:optimizeQuality;fill-rule:evenodd;clip-rule:evenodd"><path style="opacity:.997" fill="#002046" d="M191.5 8.5c40.335-.167 80.668 0 121 .5a3.944 3.944 0 0 1 1 2 1375.648 1375.648 0 0 0-6 48.5c-36.043-.327-72.043.007-108 1a3.646 3.646 0 0 1-1.5-1 3584.941 3584.941 0 0 0-7.5-48 10.02 10.02 0 0 1 1-3z"/><path style="opacity:.988" fill="#002046" d="M194.5 67.5c38.668-.167 77.335 0 116 .5 5.165 3.72 6.332 8.554 3.5 14.5a36.012 36.012 0 0 1-4.5 3.5c-38 .667-76 .667-114 0-5.525-2.919-7.358-7.419-5.5-13.5 1.059-2.16 2.559-3.826 4.5-5z"/><path style="opacity:.996" fill="#002046" d="M249.5 94.5c8.38-.92 11.38 2.747 9 11 13.671.167 27.337 0 41-.5 2.965-2.089 5.799-1.922 8.5.5a411.255 411.255 0 0 0 11 38 26.67 26.67 0 0 0 6.5 1.5c.832 11.217-4.168 18.884-15 23-14.993 3.753-25.493-1.414-31.5-15.5a32.462 32.462 0 0 1-.5-8c2.865.445 5.365-.222 7.5-2a1773.017 1773.017 0 0 0 11.5-31h-38a2537.346 2537.346 0 0 0 3.5 91 20.431 20.431 0 0 0 5.5 1.5l2 5 12 1c1.599 1.066 2.599 2.566 3 4.5 2.266.814 4.6 1.314 7 1.5.597 1.889.931 3.722 1 5.5a3.647 3.647 0 0 0 1.5-1l1-7c5.785-1.453 10.119-4.786 13-10L346.5 312c-20.901 17.227-37.734 37.727-50.5 61.5a493.256 493.256 0 0 0-21 47l-18 22c-1.011.837-2.178 1.17-3.5 1a1247.244 1247.244 0 0 0-1-114 812.26 812.26 0 0 0 1.5-38c12.82-6.126 15.82-15.46 9-28-8.96-7.993-17.96-7.993-27 0-6.576 13.609-2.91 23.275 11 29a3800.56 3800.56 0 0 1-.5 151 9625.543 9625.543 0 0 1-21.5-25c-9.032-29.735-23.032-56.735-42-81-7.909-9.753-17.409-17.42-28.5-23l-1-2a3602.816 3602.816 0 0 1 40-110c3.454 5.567 8.454 8.9 15 10 .043 2.618.377 5.285 1 8 1.574 1.131 3.241 1.298 5 .5-3.415-1.143-3.749-2.81-1-5a24.935 24.935 0 0 1 7-.5c-.322-2.222.345-4.056 2-5.5l13-1a15.256 15.256 0 0 0 1.5-4.5l4-2a6088.916 6088.916 0 0 0 6.5-87 7.93 7.93 0 0 0-1-3.5 684.346 684.346 0 0 0-37-.5 218.732 218.732 0 0 0 11 33.5c1.973.495 3.973.662 6 .5-2.239 19.052-12.906 26.885-32 23.5-10.73-4.22-16.064-12.053-16-23.5 2.292.256 4.459-.077 6.5-1a680.046 680.046 0 0 0 15.5-40.5c15.485 1.38 31.152 1.88 47 1.5-.389-3.914.278-7.58 2-11zm53 22c.617.111 1.117.444 1.5 1a420.383 420.383 0 0 1 8.5 27h-20a702.311 702.311 0 0 1 10-28zm-100 0c.997-.03 1.664.47 2 1.5a596.984 596.984 0 0 0 9 26c-6.823 1.46-13.823 1.96-21 1.5a372.495 372.495 0 0 1 10-29z"/><path style="opacity:.663" fill="#0f324a" d="M289.5 218.5c1.965.448 2.298 1.448 1 3a491.428 491.428 0 0 1-23-.5c7.481-.858 14.814-1.692 22-2.5z"/><path style="opacity:.999" fill="#c78f22" d="M340.5 356.5c3.487 1.324 5.821 3.824 7 7.5-36.949 35.013-62.449 77.18-76.5 126.5-8.2 10.601-16.533 10.601-25 0-9.571-20.158-20.905-39.158-34-57-.781-1.444-.614-2.777.5-4 4.05-3.224 8.05-3.391 12-.5a203.884 203.884 0 0 1 30 33.5c16.702-34.548 39.035-65.048 67-91.5a370.958 370.958 0 0 1 19-14.5z"/></svg>